Results
version=1
nRows=22
nColumns=24
inDegrees=yes
endheader
time	pelvis_tilt	pelvis_list	pelvis_rotation	pelvis_tx	pelvis_ty	pelvis_tz	hip_flexion_r	hip_adduction_r	hip_rotation_r	knee_angle_r	ankle_angle_r	subtalar_angle_r	mtp_angle_r	hip_flexion_l	hip_adduction_l	hip_rotation_l	knee_angle_l	ankle_angle_l	subtalar_angle_l	mtp_angle_l	lumbar_extension	lumbar_bending	lumbar_rotation
      1.11683333	     -1.23636516	      1.19326516	     -8.10224339	     -0.13214723	      0.99444445	      0.33224737	    -13.08361616	      0.38930885	     -0.89544062	    -10.89866815	      9.83699298	      0.00262687	     12.98067817	     21.51654766	      1.29359493	    -15.58895906	      4.94812548	      0.09631738	     -1.24069485	      9.98564551	     -4.53261625	     -1.39362272	     15.20530440
      1.12100000	     -1.18333423	      1.28370541	     -8.16909327	     -0.12611157	      0.99395031	      0.33216262	    -13.25526406	      0.18577635	     -0.95332411	    -11.37236730	      9.90172492	      0.33261475	     13.06340487	     21.45932421	      1.44499984	    -15.36163248	      4.70973506	      0.03000876	     -1.73158915	     10.00659547	     -4.52890268	     -1.54743107	     15.40511416
      1.12516667	     -1.13073700	      1.37271927	     -8.22473606	     -0.12006459	      0.99349306	      0.33206638	    -13.42609275	     -0.00898319	     -0.98313005	    -11.84044725	      9.84314844	      0.50205494	     13.17250136	     21.42337501	      1.59051512	    -15.15122335	      4.37002228	     -0.06544348	     -2.15718063	     10.04020119	     -4.53506781	     -1.66947027	     15.51042006
      1.12933333	     -1.08351657	      1.48042338	     -8.29272824	     -0.11396866	      0.99305959	      0.33200285	    -13.57567742	     -0.22507900	     -0.99587212	    -12.33534927	      9.78453985	      0.66579673	     13.30070556	     21.38142978	      1.74661530	    -14.89873550	      3.99567092	     -0.18421630	     -2.60905714	     10.08302351	     -4.52114492	     -1.82661646	     15.63039218
      1.13350000	     -1.02707031	      1.59420686	     -8.35848575	     -0.10784655	      0.99266802	      0.33193383	    -13.71970948	     -0.44936340	     -1.01894340	    -12.85727187	      9.68801569	      0.82554418	     13.45643681	     21.32670600	      1.90917938	    -14.60564323	      3.58057117	     -0.36098507	     -3.10607529	     10.13761131	     -4.51886125	     -1.98671345	     15.74370629
      1.13766667	     -1.00004314	      1.71974553	     -8.43069926	     -0.10168876	      0.99227572	      0.33187545	    -13.80949639	     -0.68393280	     -1.03199805	    -13.41969804	      9.56947997	      0.97893767	     13.63809784	     21.29705357	      2.07511720	    -14.27713919	      3.13631164	     -0.58501183	     -3.64353043	     10.20096723	     -4.47057930	     -2.16166473	     15.86340993
      1.14183333	     -0.94369899	      1.85278693	     -8.50110202	     -0.09550902	      0.99194991	      0.33181217	    -13.91685559	     -0.93103220	     -1.05114107	    -14.00484127	      9.41975878	      1.12570018	     13.84518337	     21.22836628	      2.25404745	    -13.91390978	      2.67583919	     -0.85610583	     -4.20933117	     10.27201432	     -4.45752574	     -2.34913308	     15.97904603
      1.14600000	     -0.90059929	      1.99650294	     -8.57374280	     -0.08929909	      0.99164034	      0.33174373	    -13.98506132	     -1.19020687	     -1.07676128	    -14.63439343	      9.24319673	      1.27886643	     14.08019906	     21.16859890	      2.44043011	    -13.52715541	      2.19767266	     -1.17790320	     -4.81034825	     10.34959881	     -4.42225557	     -2.54513848	     16.09320556
      1.15016667	     -0.86526793	      2.14729188	     -8.64614129	     -0.08306163	      0.99135711	      0.33166928	    -14.02339598	     -1.45644892	     -1.10145054	    -15.30137254	      9.03026224	      1.41859571	     14.36627526	     21.11191330	      2.63306294	    -13.11548578	      1.70661792	     -1.53853219	     -5.44276506	     10.43772591	     -4.37235535	     -2.74654186	     16.20424982
      1.15433333	     -0.81723103	      2.30892930	     -8.72155396	     -0.07680248	      0.99112777	      0.33159180	    -14.04965922	     -1.73960329	     -1.13452527	    -16.01122937	      8.78594370	      1.56661602	     14.66230120	     21.03535460	      2.83734072	    -12.71297300	      1.21346301	     -1.94865060	     -6.06228478	     10.52163580	     -4.33216269	     -2.96767988	     16.31312794
      1.15850000	     -0.78757567	      2.47581281	     -8.79316251	     -0.07052696	      0.99091136	      0.33149801	    -14.02986425	     -2.02585149	     -1.17046082	    -16.76609742	      8.50242516	      1.70584027	     14.99741318	     20.97857674	      3.04429173	    -12.30088050	      0.70508144	     -2.37938339	     -6.70103451	     10.60678579	     -4.26841015	     -3.18788953	     16.41359323
      1.16266667	     -0.74047971	      2.65408431	     -8.86551589	     -0.06423380	      0.99075446	      0.33139153	    -14.00201330	     -2.33057108	     -1.21438317	    -17.56376741	      8.18318354	      1.84733488	     15.36299195	     20.89686516	      3.26555959	    -11.90017583	      0.20136457	     -2.84200322	     -7.32811417	     10.68786958	     -4.21954266	     -3.42456945	     16.50551444
      1.16683333	     -0.68657716	      2.83775769	     -8.91034691	     -0.05792474	      0.99063872	      0.33126081	    -13.96966775	     -2.63294630	     -1.27129294	    -18.37363124	      7.75801808	      1.81743787	     19.85944087	     20.82403109	      3.49585286	    -11.52024276	     -0.34375625	     -3.28550089	     -7.90530376	     11.60469565	     -4.17614580	     -3.67997031	     16.50424989
      1.17100000	     -0.64711101	      3.03182165	     -8.99659330	     -0.05160836	      0.99055970	      0.33113792	    -13.86393296	     -2.96708795	     -1.32589256	    -19.28333257	      7.35503673	      2.04394752	     19.91785254	     20.75084997	      3.72219371	    -11.21455321	     -0.86270731	     -3.75501103	     -8.42469113	     11.60875483	     -4.11157853	     -3.92621636	     16.65272676
      1.17516667	     -0.59775638	      3.22940292	     -9.05421672	     -0.04529580	      0.99051999	      0.33097122	    -13.74690416	     -3.29759474	     -1.38891715	    -20.23404201	      6.91719913	      2.18808011	     20.03414108	     20.66905244	      3.96309491	    -10.87583496	     -1.38731050	     -4.22891149	     -9.00233584	     11.60884102	     -4.05944797	     -4.18008616	     16.71956469
      1.17933333	     -0.54354964	      3.43267105	     -9.10814332	     -0.03898701	      0.99052735	      0.33079712	    -13.60340528	     -3.63604913	     -1.45275009	    -21.23288714	      6.43586393	      2.31951959	     20.20596448	     20.58435137	      4.20719934	    -10.57573219	     -1.92090979	     -4.68312828	     -9.52247526	     11.60332609	     -4.01205338	     -4.44408485	     16.76978131
      1.18350000	     -0.47482311	      3.63930390	     -9.14164838	     -0.03267970	      0.99058740	      0.33057876	    -13.45282920	     -3.97848779	     -1.53067147	    -22.26667101	      5.89323886	      2.43380634	     20.56714480	     20.48428709	      4.46418595	    -10.25281924	     -2.46118977	     -5.07396739	    -10.06788524	     11.58533084	     -3.98265388	     -4.72062604	     16.81166639
      1.18766667	     -0.41901063	      3.85550006	     -9.17877458	     -0.02638557	      0.99066967	      0.33035218	    -13.24372301	     -4.33528722	     -1.60772751	    -23.37156692	      5.32209770	      2.56657811	     21.03011131	     20.40139834	      4.72252202	    -10.00680166	     -3.00593184	     -5.47024452	    -10.51184848	     11.54952986	     -3.93399045	     -4.99772241	     16.83678432
      1.19183333	     -0.34192639	      4.07670661	     -9.20206939	     -0.02011104	      0.99081803	      0.33010821	    -13.03152402	     -4.69592178	     -1.67950992	    -24.51041852	      4.68985093	      2.54899197	     24.38247951	     20.30383565	      4.98709095	     -9.83230530	     -3.56445023	     -5.85651086	    -10.82083123	     11.23781205	     -3.91741773	     -5.29029268	     16.79048062
      1.19600000	     -0.29676060	      4.29084265	     -9.23865914	     -0.01385240	      0.99097138	      0.32984651	    -12.74066494	     -5.05479128	     -1.72718943	    -25.71768355	      4.01202051	      2.69569965	     24.43083714	     20.24137795	      5.23177406	     -9.72404236	     -4.13523502	     -6.16431793	    -11.05846977	     11.22241321	     -3.85986568	     -5.54611850	     16.80080640
      1.20016667	     -0.23483644	      4.50815991	     -9.24340203	     -0.00763527	      0.99115998	      0.32954620	    -12.44101586	     -5.41207965	     -1.79062294	    -26.97265737	      3.33533191	      2.79345511	     24.53375184	     20.16325325	      5.49258441	     -9.57053014	     -4.70866610	     -6.44291915	    -11.35608402	     11.19512846	     -3.82953532	     -5.82510157	     16.77367241
      1.20433333	     -0.16296044	      4.73043886	     -9.24306806	     -0.00142899	      0.99139818	      0.32923676	    -12.12182919	     -5.77552761	     -1.84387204	    -28.26917346	      2.59959517	      2.84800870	     24.65155464	     20.06474753	      5.76063622	     -9.44985243	     -5.26362446	     -6.67177315	    -11.56864458	     11.16384675	     -3.81048613	     -6.10637229	     16.71930475
